<?xml version="1.0" encoding="utf-8"?>
<!-- Generator: Adobe Illustrator 19.1.0, SVG Export Plug-In . SVG Version: 6.00 Build 0)  -->
<!DOCTYPE svg PUBLIC "-//W3C//DTD SVG 1.1//EN" "http://www.w3.org/Graphics/SVG/1.1/DTD/svg11.dtd">
<svg version="1.1" id="Layer_1" xmlns="http://www.w3.org/2000/svg" xmlns:xlink="http://www.w3.org/1999/xlink" x="0px" y="0px"
	 width="80px" height="27px" viewBox="0 0 240 120" enable-background="new 0 0 240 120" xml:space="preserve">
<g transform="translate(-50, -15)">
	<ellipse cx="69.5" cy="33.9" rx="5.3" ry="5.7" fill="#7D7160"/>
	<ellipse ry="5.7" rx="5.3" cy="26.6" cx="107.3" fill="#7D7160"/>
	<ellipse cx="145.2" cy="33.6" rx="5.3" ry="5.7" fill="#7D7160"/>
	<path d="M78 78.5l58.6-.4c3.7 1.2 4.4 8 .4 9.6l-58.4-.2c-4-1.2-4.3-7-.5-9zM70 42.7C72.5 45 77.7 47.4 81 
		49c3.3 1.7 3 1.6 4.7 3.4 0 0 1.1 1.7 1.5 3.4.9-1.9.7-3 3.6-6.1L107 35.4l17 14.5c1.3 1.3 2.3 3.1 2.8 
		5.4 1-2.4 2.3-4.4 4.7-5l7.8-3.7c2-1 3.5-2.9 5-4.7-.1 6.3 1.1 17-.4 19.1-2 2.3-1.3 1-5.3 4.5-2.2 1.2-3.7 
		1-6.3 3.6-2 1-4.2 3.7-5.7 5.8-1-1.8-2.2-3.7-3.8-5.5-1.5-1.5-3.6-3-8-5.6-3.6-2.7-6-5.4-8-7.7a41 41 0 0 
		1-6.1 6.6L92 68.5a18 18 0 0 0-4.7 6.6c-.3-1.7-1.1-3.3-2.5-4.6-7.8-4.8-12.5-7.3-14.5-10.1-.8-3.9-.2-6-.3-9zM74.9 
		124.8l64.7.4c6 .2 6.3-10.2 0-10.4-4 .1-4 0-10.7-.2-3.2-1-2-10-2-20.4L88.2 94c0 6.9 2 21-4.1 20.5l-9.2.1c-4.5 0-4.4 10 0 10.2z" 
	fill="#7D7160" />
</g>
<g transform="translate(140, -15)">
	<ellipse cx="69.5" cy="33.9" rx="5.3" ry="5.7" fill="#FF6155"/>
	<ellipse ry="5.7" rx="5.3" cy="26.6" cx="107.3" fill="#FF6155"/>
	<ellipse cx="145.2" cy="33.6" rx="5.3" ry="5.7" fill="#FF6155"/>
	<path d="M78 78.5l58.6-.4c3.7 1.2 4.4 8 .4 9.6l-58.4-.2c-4-1.2-4.3-7-.5-9zM70 42.7C72.5 45 77.7 47.4 81 
		49c3.3 1.7 3 1.6 4.7 3.4 0 0 1.1 1.7 1.5 3.4.9-1.9.7-3 3.6-6.1L107 35.4l17 14.5c1.3 1.3 2.3 3.1 2.8 
		5.4 1-2.4 2.3-4.4 4.7-5l7.8-3.7c2-1 3.5-2.9 5-4.7-.1 6.3 1.1 17-.4 19.1-2 2.3-1.3 1-5.3 4.5-2.2 1.2-3.7 
		1-6.3 3.6-2 1-4.2 3.7-5.7 5.8-1-1.8-2.2-3.7-3.8-5.5-1.5-1.5-3.6-3-8-5.6-3.6-2.7-6-5.4-8-7.7a41 41 0 0 
		1-6.1 6.6L92 68.5a18 18 0 0 0-4.7 6.6c-.3-1.7-1.1-3.3-2.5-4.6-7.8-4.8-12.5-7.3-14.5-10.1-.8-3.9-.2-6-.3-9zM74.9 
		124.8l64.7.4c6 .2 6.3-10.2 0-10.4-4 .1-4 0-10.7-.2-3.2-1-2-10-2-20.4L88.2 94c0 6.9 2 21-4.1 20.5l-9.2.1c-4.5 0-4.4 10 0 10.2z" 
	fill="#FF6155" />
</g>
</svg>